<svg xmlns="http://www.w3.org/2000/svg" viewBox="0 0 800 600" role="img" aria-label="Illustration eines Rohbaus vor der Endreinigung"><defs><linearGradient id="bg" x1="0" y1="0" x2="0" y2="1"><stop offset="0" stop-color="#EAF3FC"/><stop offset="1" stop-color="#D6E8F8"/></linearGradient><linearGradient id="mb" x1="0" y1="0" x2="1" y2="1"><stop offset="0" stop-color="#26CEB1"/><stop offset="1" stop-color="#2581FF"/></linearGradient></defs><rect width="800" height="600" fill="url(#bg)"/>
<rect y="430" width="800" height="170" fill="#E6EDF5"/>
<rect x="470" y="90" width="260" height="240" rx="8" fill="#BBDCF7"/>
<path d="M470 330 L590 90 h64 L534 330 Z" fill="#FFFFFF" opacity=".5"/>
<rect x="596" y="90" width="8" height="240" fill="#CBD9E8"/>
<path d="M96 566 L300 566 L262 430 L134 430 Z" fill="#FFFFFF" opacity=".55"/>
<rect x="150" y="150" width="17" height="286" rx="7" fill="#0C1B33"/>
<rect x="256" y="150" width="17" height="286" rx="7" fill="#0C1B33"/>
<rect x="150" y="198" width="123" height="14" rx="6" fill="#0C1B33" opacity=".78"/><rect x="150" y="256" width="123" height="14" rx="6" fill="#0C1B33" opacity=".78"/><rect x="150" y="314" width="123" height="14" rx="6" fill="#0C1B33" opacity=".78"/><rect x="150" y="372" width="123" height="14" rx="6" fill="#0C1B33" opacity=".78"/>
<rect x="330" y="356" width="88" height="78" rx="9" fill="#2581FF"/>
<rect x="330" y="356" width="88" height="19" rx="9" fill="#FFFFFF" opacity=".5"/>
<path d="M352 354c0-17 44-17 44 0" fill="none" stroke="#0C1B33" stroke-width="7" stroke-linecap="round"/>
<rect x="440" y="392" width="134" height="42" rx="11" fill="#26CEB1"/>
<rect x="452" y="402" width="110" height="18" rx="9" fill="#FFFFFF" opacity=".55"/>
<rect x="500" y="330" width="14" height="66" rx="7" fill="#0C1B33"/>
<path d="M614 434 q64 -34 128 0" fill="none" stroke="#FFFFFF" stroke-width="15" stroke-linecap="round" opacity=".75"/>
<g transform="translate(660 208) scale(1)" fill="#26CEB1" opacity=".6"><path d="M0 -22 L5.5 -5.5 L22 0 L5.5 5.5 L0 22 L-5.5 5.5 L-22 0 L-5.5 -5.5 Z"/></g><g transform="translate(210 118) scale(.7)" fill="#2581FF" opacity=".3"><path d="M0 -22 L5.5 -5.5 L22 0 L5.5 5.5 L0 22 L-5.5 5.5 L-22 0 L-5.5 -5.5 Z"/></g></svg>