<svg xmlns="http://www.w3.org/2000/svg" viewBox="0 0 800 600" role="img" aria-label="Illustration einer streifenfrei gereinigten Fensterfront"><defs><linearGradient id="bg" x1="0" y1="0" x2="0" y2="1"><stop offset="0" stop-color="#EAF3FC"/><stop offset="1" stop-color="#D6E8F8"/></linearGradient><linearGradient id="mb" x1="0" y1="0" x2="1" y2="1"><stop offset="0" stop-color="#26CEB1"/><stop offset="1" stop-color="#2581FF"/></linearGradient></defs><rect width="800" height="600" fill="url(#bg)"/>
<rect x="90" y="60" width="620" height="480" rx="14" fill="#FFFFFF"/>
<rect x="112" y="82" width="576" height="436" rx="8" fill="#BBDCF7"/>
<path d="M112 518 L392 82 h150 L262 518 Z" fill="#FFFFFF" opacity=".55"/>
<path d="M540 518 L688 288 v130 L640 518 Z" fill="#FFFFFF" opacity=".35"/>
<rect x="392" y="82" width="14" height="436" fill="#FFFFFF"/>
<rect x="112" y="292" width="576" height="14" fill="#FFFFFF"/>
<rect x="90" y="60" width="620" height="480" rx="14" fill="none" stroke="#CBD9E8" stroke-width="18"/>
<rect x="470" y="120" width="150" height="26" rx="13" fill="#0C1B33"/>
<rect x="470" y="146" width="150" height="16" rx="6" fill="#26CEB1"/>
<rect x="536" y="162" width="18" height="86" rx="9" fill="#0C1B33" opacity=".9"/>
<path d="M470 176 q76 26 150 0" fill="none" stroke="#FFFFFF" stroke-width="12" stroke-linecap="round" opacity=".85"/>
<g transform="translate(230 200) scale(1.2)" fill="#FFFFFF" opacity=".95"><path d="M0 -22 L5.5 -5.5 L22 0 L5.5 5.5 L0 22 L-5.5 5.5 L-22 0 L-5.5 -5.5 Z"/></g>
<g transform="translate(320 400) scale(.9)" fill="#FFFFFF" opacity=".8"><path d="M0 -22 L5.5 -5.5 L22 0 L5.5 5.5 L0 22 L-5.5 5.5 L-22 0 L-5.5 -5.5 Z"/></g>
<g transform="translate(600 420) scale(1)" fill="#FFFFFF" opacity=".7"><path d="M0 -22 L5.5 -5.5 L22 0 L5.5 5.5 L0 22 L-5.5 5.5 L-22 0 L-5.5 -5.5 Z"/></g>
</svg>